<svg width="341" height="238" viewBox="0 0 341 238" fill="none" xmlns="http://www.w3.org/2000/svg">
<g clip-path="url(#clip0_250_2)">
<path d="M66.0966 168.911C57.2006 168.911 52.0043 164.205 46.909 151.54L36.9262 127.504C34.337 127.95 31.3261 128.218 28.8438 128.218C27.0385 128.218 24.4968 128.129 22.4598 127.885V165.444H4.77469V56.0375C4.77469 43.1287 4.02049 36.2007 1.89447 29.5646L1.5144 28.3732L18.4275 23.7863L18.8195 24.7752C20.3813 28.7545 22.4598 35.4382 22.4598 47.5488V110.562C24.5146 110.77 26.9613 110.77 29.1586 110.77C41.8078 110.77 48.2214 104.939 48.2214 93.4356C48.2214 88.0921 46.327 83.2908 44.5514 80.5863L43.8447 79.5021L57.551 72.0261L58.1805 72.729C64.4873 79.794 64.9742 91.16 64.9742 94.478C64.9742 105.451 60.1343 115.59 52.2834 121.219L59.772 138.327C60.3065 139.555 60.7994 140.746 61.2685 141.896C63.7865 148.008 65.3543 151.469 68.4245 151.469C70.1883 151.469 72.0887 150.438 72.8725 149.711L74.1375 148.532L79.8266 162.71L79.4287 163.246C77.659 165.622 72.0471 168.923 66.1085 168.923L66.0966 168.911Z" fill="#0051BD"/>
<path d="M17.7089 25.216C19.4073 29.5408 21.2661 36.1233 21.2661 47.5547V111.622C23.5822 111.968 26.5218 111.968 29.1526 111.968C43.2211 111.968 49.4032 104.867 49.4032 93.4415C49.4032 87.556 47.2356 82.5342 45.5371 79.937L57.2837 73.5273C59.2909 75.779 63.7746 82.3555 63.7746 94.478C63.7746 105.731 58.6733 115.602 50.7868 120.796L58.6733 138.804C61.9217 146.25 63.6202 152.654 68.4126 152.654C70.5802 152.654 72.7418 151.439 73.6683 150.575L78.4607 162.525C76.9167 164.604 71.661 167.719 66.0906 167.719C57.8954 167.719 52.9485 163.395 48.0017 151.099L37.6447 126.163C35.014 126.682 31.6171 127.033 28.8319 127.033C26.2011 127.033 23.113 126.86 21.2542 126.509V164.258H5.96235V56.0375C5.96235 42.8785 5.19033 35.9505 3.02274 29.1953L17.7089 25.216ZM19.1401 22.3566L17.0913 22.9106L2.40513 26.8899L0 27.5392L0.76014 29.9161C2.84459 36.4211 3.58691 43.2538 3.58691 56.0256V166.629H23.6415V129.195C25.3994 129.344 27.3116 129.404 28.8438 129.404C31.0945 129.404 33.7668 129.189 36.1898 128.826L45.8222 152.005C51.0541 165.015 56.7433 170.096 66.1025 170.096C72.0886 170.096 78.1756 166.903 80.3729 163.943L81.1687 162.87L80.6699 161.631L75.8774 149.682L74.5887 146.465L72.0589 148.83C71.5185 149.33 69.9032 150.271 68.4185 150.271C66.1144 150.271 64.6178 146.912 62.3612 141.437C61.8861 140.281 61.3932 139.09 60.8528 137.851L53.7443 121.612C61.4466 115.661 66.1559 105.463 66.1559 94.478C66.1559 81.3071 61.1913 74.3255 59.0593 71.9367L57.8063 70.5309L56.1553 71.4304L44.4088 77.8401L42.1403 79.0792L43.5596 81.2416C45.2402 83.8031 47.0337 88.3542 47.0337 93.4356C47.0337 104.301 41.1841 109.579 29.1585 109.579C27.365 109.579 25.4053 109.579 23.6475 109.466V47.5488C23.6475 35.2357 21.5215 28.403 19.924 24.3403L19.146 22.3566H19.1401Z" fill="#F0EAE8"/>
<path d="M108.825 62.9H90.8071V183.982H108.825V62.9Z" fill="#0051BD"/>
<path d="M107.637 64.0914V182.791H91.9948V64.0914H107.637ZM110.013 61.7086H89.6194V185.173H110.013V61.7086Z" fill="#F0EAE8"/>
<path d="M305.024 216.174C302.001 216.174 299.566 214.714 297.333 213.219C287.279 206.243 282.404 198.046 282.404 188.152C282.404 184.196 283.14 180.717 284.589 177.816C287.244 172.652 291.288 168.303 297.322 164.127L297.832 163.758C304.323 159.04 311.04 154.167 311.04 147.567C311.04 143.873 305.909 139.019 301.318 137.148C299.946 136.582 298.581 136.076 297.262 135.587C290.243 132.99 283.609 130.536 283.609 120.736C283.609 115.244 288.123 110.949 293.883 110.949C295.077 110.949 296.526 111.044 298.361 111.17C298.967 111.211 299.614 111.253 300.303 111.295C302.999 111.461 305.76 111.634 308.629 111.634C315.654 111.634 318.926 110.645 318.926 108.525C318.926 98.4513 308.326 88.1338 299.246 82.3555C296.336 80.348 294.406 76.7738 294.406 73.4379C294.406 68.3804 298.67 62.9595 305.024 62.9595C306.901 62.9595 308.825 63.5135 310.909 64.6513L310.974 64.693C312.483 65.6461 320.387 70.8466 327.858 79.3592C335.792 88.6104 339.812 98.4752 339.812 108.697C339.812 119.593 334.859 126.789 325.084 130.113C325.09 130.119 325.096 130.131 325.102 130.137C329.503 135.373 331.926 138.256 331.926 147.561C331.926 161.173 323.861 170.293 311.752 179.8L311.699 179.842C304.388 184.917 303.296 187.229 303.296 188.152C303.296 189.707 304.632 192.465 311.004 196.795C314.3 199.071 315.47 203.009 315.47 205.695C315.47 212.576 310.214 216.174 305.024 216.174Z" fill="#0051BD"/>
<path d="M305.024 64.1628C306.734 64.1628 308.451 64.6811 310.339 65.7116C313.593 67.7787 320.625 72.9375 326.967 80.1574C333.31 87.556 338.625 97.1825 338.625 108.709C338.625 120.236 332.282 126.938 323.024 129.517C328.167 135.712 330.738 137.946 330.738 147.573C330.738 160.642 322.852 169.584 311.022 178.871C306.562 181.968 302.108 185.578 302.108 188.158C302.108 190.91 305.024 194.174 310.339 197.79C313.083 199.685 314.282 203.122 314.282 205.701C314.282 211.89 309.484 214.988 305.024 214.988C302.28 214.988 300.053 213.612 297.993 212.236C286.852 204.498 283.592 196.241 283.592 188.164C283.592 184.381 284.275 181.111 285.652 178.359C288.568 172.681 293.022 168.559 297.993 165.116C304.852 160.13 312.222 154.971 312.222 147.573C312.222 143.099 306.396 137.94 301.764 136.052C293.022 132.436 284.791 131.405 284.791 120.742C284.791 115.584 289.079 112.146 293.877 112.146C295.421 112.146 297.476 112.319 300.22 112.492C302.963 112.665 305.707 112.837 308.623 112.837C314.793 112.837 320.108 112.152 320.108 108.537C320.108 96.6702 306.907 85.8344 299.881 81.3666C297.138 79.4723 295.594 76.2079 295.594 73.4557C295.594 68.8093 299.537 64.1688 305.024 64.1688M305.024 61.78C301.799 61.78 298.789 63.0667 296.538 65.4138C294.424 67.6119 293.212 70.5428 293.212 73.4498C293.212 77.2206 295.297 81.0986 298.527 83.3265L298.563 83.3503L298.598 83.3742C307.423 88.9916 317.727 98.9457 317.727 108.537C317.727 108.727 317.727 109.239 315.999 109.752C314.419 110.222 312.002 110.449 308.617 110.449C305.778 110.449 303.023 110.276 300.362 110.109C299.679 110.067 299.038 110.026 298.438 109.984C296.573 109.859 295.107 109.764 293.871 109.764C287.446 109.764 282.41 114.589 282.41 120.742C282.41 131.376 289.744 134.086 296.841 136.713C298.153 137.196 299.507 137.696 300.849 138.256C304.923 139.918 309.834 144.445 309.834 147.573C309.834 153.56 303.373 158.254 297.12 162.793L296.609 163.168C290.421 167.457 286.264 171.937 283.526 177.262C281.982 180.36 281.204 184.018 281.204 188.158C281.204 198.469 286.252 206.988 296.627 214.19L296.645 214.202L296.663 214.214C299.044 215.81 301.657 217.365 305.012 217.365C310.654 217.365 316.646 213.272 316.646 205.695C316.646 202.723 315.345 198.35 311.675 195.818C304.994 191.279 304.478 188.801 304.478 188.152C304.49 187.961 304.81 186.067 312.37 180.825L312.429 180.783L312.483 180.741C319.473 175.255 324.034 170.704 327.27 165.986C331.201 160.255 333.108 154.233 333.108 147.567C333.108 138.631 330.857 135.218 327.068 130.643C336.202 126.914 340.994 119.39 340.994 108.703C340.994 98.0165 336.879 88.0623 328.761 78.6026C321.159 69.9471 313.13 64.6692 311.598 63.6982L311.533 63.6565L311.467 63.6207C309.205 62.3876 307.097 61.786 305.018 61.786L305.024 61.78Z" fill="#F0EAE8"/>
<path d="M188.96 236.809C187.238 236.809 185.51 236.743 183.823 236.612C178.686 236.213 174.185 235.474 170.052 234.372C165.853 233.246 161.619 231.614 157.468 229.523C153.608 227.575 150.252 225.097 147.2 222.714C144.522 220.617 142.057 218.3 139.878 215.816C136.98 212.516 134.521 209.18 132.561 205.904C130.602 202.627 128.844 198.815 127.335 194.573C125.863 190.439 125.198 186.204 124.74 182.606C124.319 179.264 124.295 175.97 124.675 172.824C125.15 168.869 125.833 164.616 127.555 160.356C129.634 155.221 131.766 151.224 134.272 147.775C137.288 143.629 140.258 140.15 143.358 137.136C146.321 134.253 149.795 131.352 154.285 128.004C160.669 123.244 168.537 118.842 175.598 116.06C175.301 115.625 174.898 115.036 174.381 114.249C172.362 111.175 170.604 107.446 169.155 103.157C167.949 99.601 167.213 95.6277 166.904 91.017C166.631 86.9185 166.964 82.4865 167.961 77.0597C168.62 73.4736 169.713 69.7922 171.204 66.1286C173.259 61.089 175.212 57.1038 177.35 53.5832C179.375 50.2473 181.81 46.822 185.023 42.795C188.657 38.2439 192.993 33.9132 197.91 29.9339C203.777 25.1862 209.425 21.3201 215.179 18.1152C220.839 14.964 227.038 12.1165 234.129 9.42394C239.652 7.32708 245.317 5.60551 250.965 4.31284C257.094 2.90699 263.365 1.95387 269.6 1.46539C271.869 1.28668 274.078 1.19733 276.168 1.19733C278.752 1.19733 281.264 1.33434 283.639 1.60836C285.73 1.62623 287.707 2.16832 289.518 3.22271L289.59 3.26441L291.84 5.00981L291.876 5.04555C293.972 6.97562 295.214 9.9422 295.368 13.3913C295.427 15.0354 295.095 16.5843 294.364 18.008C293.877 19.4615 293.052 20.7422 291.912 21.8085C290.843 22.9523 289.572 23.7744 288.123 24.2688C286.816 24.9419 285.397 25.2815 283.906 25.2815C283.782 25.2815 283.657 25.2815 283.526 25.2755H283.479L283.431 25.2696C281.103 25.0015 278.651 24.8645 276.127 24.8645C272.867 24.8645 269.482 25.0849 265.776 25.5317C264.089 25.7819 262.349 26.0857 260.627 26.4252C252.842 27.9621 245.044 30.3211 237.449 33.4366C235.97 34.08 234.479 34.765 233.048 35.462C226.462 38.649 220.352 42.3542 214.876 46.4705C209.935 50.42 205.559 54.7507 201.906 59.3078C198.539 63.8411 195.73 68.5829 193.586 73.3664C192.203 76.887 191.193 80.4671 190.611 83.952C190.344 86.6028 190.32 89.1882 190.546 91.6365C190.92 93.7334 191.496 95.8243 192.25 97.8496C193.123 99.7142 194.156 101.495 195.314 103.145C196.389 104.42 197.559 105.6 198.783 106.654C199.863 107.405 200.992 108.072 202.144 108.644C203.189 109.013 204.264 109.317 205.345 109.543C206.918 109.919 208.284 110.627 209.436 111.67C210.719 112.522 211.741 113.654 212.483 115.036C213.445 116.864 213.979 118.842 214.075 120.915C214.134 122.547 213.801 124.09 213.083 125.514C212.78 126.521 212.263 127.408 211.539 128.165C210.695 129.44 209.567 130.464 208.195 131.203L208.148 131.233L205.416 132.388L205.262 132.412C197.963 133.413 190.754 135.343 183.829 138.143C177.57 140.913 171.602 144.41 166.126 148.514C161.643 152.1 157.753 155.901 154.605 159.79C152.723 162.376 151.137 165.033 149.902 167.689C149.112 169.798 148.512 171.955 148.132 174.099C147.925 176.381 147.936 178.728 148.156 181.069C148.631 183.809 149.391 186.561 150.431 189.26C151.785 192.208 153.459 195.068 155.413 197.76C157.569 200.399 159.986 202.83 162.605 204.98C165.176 206.857 167.908 208.465 170.711 209.764C174.28 211.152 178.104 212.176 182.083 212.814C184.287 213.052 186.609 213.177 188.942 213.177C191.508 213.177 194.151 213.028 196.781 212.724C202.797 211.789 208.926 210.074 214.953 207.643C218.837 205.922 222.685 203.89 226.356 201.609C228.054 200.554 230.032 200.018 232.223 200.018C233.268 200.018 234.343 200.143 235.418 200.387C238.138 201.007 240.65 202.931 242.491 205.79C243.358 207.161 243.845 208.65 243.934 210.234C244.266 211.813 244.189 213.415 243.696 214.994C242.93 217.794 240.964 220.361 238.316 222.005C236.659 223.036 234.99 224.007 233.351 224.895C225.393 229.201 217.311 232.371 209.324 234.301C205.036 235.337 200.493 236.07 195.439 236.54C193.266 236.743 191.08 236.844 188.954 236.844L188.96 236.809Z" fill="#FCBDE2"/>
<path d="M276.18 2.3828C278.651 2.3828 281.121 2.5079 283.574 2.79383C285.486 2.79979 287.274 3.28231 288.924 4.24734C289.643 4.80134 290.356 5.35534 291.068 5.90934C293.153 7.8275 294.049 10.6809 294.174 13.433C294.228 14.8985 293.925 16.2626 293.26 17.5314C292.832 18.8479 292.102 19.9917 291.068 20.9567C290.106 21.9932 288.972 22.726 287.654 23.1549C286.484 23.7684 285.237 24.0782 283.9 24.0782C283.788 24.0782 283.681 24.0782 283.568 24.0722C281.097 23.7863 278.609 23.6552 276.121 23.6552C272.617 23.6552 269.102 23.9114 265.627 24.3284C266.12 24.2569 266.613 24.1854 267.106 24.1199C266.168 24.245 265.224 24.376 264.285 24.5011C264.731 24.4416 265.182 24.382 265.627 24.3284C263.876 24.5905 262.136 24.8883 260.396 25.2338C252.396 26.8125 244.557 29.2072 237.009 32.3048C237.455 32.1082 237.906 31.9176 238.357 31.727C237.514 32.0844 236.671 32.4418 235.822 32.7992C236.214 32.6324 236.611 32.4716 237.009 32.3048C235.507 32.9601 234.01 33.6451 232.538 34.36C226.088 37.4814 219.906 41.1748 214.175 45.4817C214.538 45.1898 214.906 44.9039 215.274 44.612C214.561 45.166 213.843 45.72 213.13 46.274C213.475 46.0059 213.825 45.7378 214.175 45.4757C209.33 49.3478 204.864 53.6845 200.98 58.5335C201.271 58.1463 201.562 57.7591 201.859 57.3719C201.307 58.0867 200.754 58.8075 200.202 59.5223C200.457 59.1887 200.719 58.8611 200.98 58.5335C197.672 62.9893 194.78 67.7728 192.511 72.8422C192.69 72.3954 192.868 71.9546 193.052 71.5078C192.696 72.3537 192.339 73.1996 191.983 74.0515C192.155 73.6464 192.333 73.2413 192.511 72.8422C191.122 76.3687 190.065 80.0204 189.435 83.7614C189.483 83.2848 189.542 82.8023 189.602 82.3257C189.477 83.2669 189.346 84.2141 189.221 85.1553C189.287 84.6907 189.358 84.226 189.435 83.7614C189.168 86.4182 189.126 89.1048 189.37 91.7616C189.293 91.3148 189.221 90.8681 189.156 90.4213C189.281 91.3625 189.412 92.3097 189.536 93.2509C189.471 92.7564 189.417 92.256 189.37 91.7616C189.768 93.9895 190.368 96.1698 191.157 98.2845C190.956 97.8497 190.76 97.4148 190.575 96.968C190.932 97.8139 191.288 98.6598 191.644 99.5117C191.478 99.1066 191.312 98.6956 191.157 98.2845C192.066 100.227 193.141 102.085 194.376 103.836C194.079 103.485 193.788 103.122 193.509 102.758C194.061 103.473 194.614 104.194 195.166 104.909C194.893 104.557 194.632 104.194 194.376 103.83C195.505 105.171 196.728 106.416 198.058 107.554C197.69 107.297 197.322 107.029 196.965 106.749C197.678 107.303 198.397 107.857 199.109 108.411C198.753 108.131 198.403 107.846 198.058 107.548C199.21 108.352 200.422 109.073 201.687 109.692C201.223 109.525 200.772 109.347 200.315 109.156C201.158 109.513 202.001 109.871 202.851 110.228C202.459 110.056 202.073 109.877 201.687 109.692C202.803 110.091 203.943 110.413 205.113 110.657C206.491 110.985 207.696 111.622 208.718 112.563C209.87 113.314 210.785 114.309 211.45 115.548C212.329 117.222 212.816 119.027 212.899 120.915C212.952 122.381 212.649 123.745 211.984 125.014C211.735 125.913 211.277 126.699 210.618 127.361C209.87 128.516 208.878 129.434 207.643 130.101C206.8 130.458 205.956 130.816 205.107 131.173C197.66 132.198 190.362 134.158 183.39 136.981C183.776 136.808 184.168 136.642 184.56 136.475C183.716 136.832 182.873 137.19 182.024 137.547C182.475 137.356 182.932 137.166 183.39 136.981C177.024 139.799 170.99 143.325 165.414 147.507C165.758 147.233 166.108 146.953 166.459 146.685C165.746 147.239 165.028 147.793 164.315 148.347C164.683 148.067 165.045 147.781 165.42 147.507C161.138 150.932 157.129 154.739 153.673 159.01C153.922 158.671 154.172 158.331 154.433 157.997C153.881 158.712 153.329 159.433 152.776 160.148C153.073 159.767 153.37 159.385 153.679 159.01C151.808 161.572 150.163 164.288 148.827 167.171C148.982 166.766 149.136 166.367 149.302 165.968C148.946 166.814 148.59 167.66 148.233 168.512C148.423 168.059 148.619 167.612 148.827 167.171C148.002 169.352 147.378 171.591 146.974 173.891C147.016 173.438 147.063 172.985 147.123 172.533C146.998 173.474 146.867 174.421 146.743 175.362C146.808 174.874 146.885 174.379 146.968 173.897C146.749 176.321 146.761 178.758 146.992 181.182C146.915 180.723 146.844 180.265 146.778 179.8C146.903 180.741 147.034 181.688 147.158 182.63C147.093 182.147 147.04 181.665 146.992 181.182C147.491 184.083 148.287 186.925 149.344 189.671C149.16 189.266 148.976 188.855 148.803 188.444C149.16 189.29 149.516 190.135 149.872 190.987C149.688 190.552 149.516 190.118 149.344 189.677C150.757 192.763 152.485 195.699 154.481 198.44C154.196 198.088 153.917 197.737 153.637 197.379C154.19 198.094 154.742 198.815 155.294 199.53C155.015 199.166 154.748 198.803 154.481 198.44C156.696 201.162 159.178 203.658 161.892 205.88C161.518 205.606 161.15 205.332 160.782 205.046C161.5 205.6 162.213 206.154 162.925 206.708C162.575 206.434 162.231 206.16 161.886 205.88C164.505 207.792 167.302 209.454 170.254 210.812C169.832 210.651 169.416 210.479 169.001 210.306C169.844 210.663 170.687 211.021 171.536 211.378C171.109 211.193 170.681 211.009 170.254 210.812C174.013 212.272 177.926 213.302 181.905 213.94C181.448 213.892 180.997 213.832 180.539 213.773L183.36 214.154C182.873 214.089 182.392 214.017 181.905 213.94C184.251 214.196 186.603 214.321 188.954 214.321C191.615 214.321 194.281 214.166 196.93 213.862C196.431 213.94 195.932 214.011 195.433 214.077C196.372 213.952 197.316 213.821 198.254 213.695C197.815 213.755 197.369 213.809 196.93 213.856C203.266 212.873 209.46 211.098 215.411 208.698C214.959 208.9 214.502 209.097 214.045 209.287C214.888 208.93 215.731 208.572 216.581 208.215C216.195 208.376 215.803 208.537 215.417 208.698C219.413 206.928 223.279 204.879 226.997 202.568C228.594 201.573 230.412 201.156 232.241 201.156C233.221 201.156 234.212 201.275 235.168 201.495C237.87 202.115 240.044 204.111 241.505 206.386C242.283 207.607 242.699 208.924 242.764 210.342C243.079 211.753 243.019 213.171 242.574 214.583C241.849 217.228 240.002 219.509 237.698 220.939C236.089 221.94 234.456 222.893 232.793 223.793C225.334 227.831 217.299 231.096 209.05 233.091C204.549 234.182 199.941 234.873 195.332 235.301C193.212 235.498 191.08 235.599 188.954 235.599C187.274 235.599 185.587 235.534 183.912 235.403C179.363 235.045 174.773 234.378 170.355 233.199C166.103 232.061 161.934 230.423 158.002 228.439C154.368 226.604 151.131 224.257 147.93 221.755C145.341 219.73 142.942 217.478 140.768 215.012C138.114 211.992 135.643 208.733 133.577 205.272C131.486 201.775 129.818 197.987 128.452 194.151C127.092 190.332 126.427 186.442 125.916 182.427C125.518 179.276 125.471 176.089 125.851 172.938C126.356 168.732 127.062 164.711 128.654 160.773C130.423 156.395 132.449 152.273 135.228 148.448C137.942 144.719 140.875 141.181 144.177 137.964C147.55 134.688 151.22 131.739 154.985 128.933C161.868 123.804 170.307 119.253 177.297 116.656C177.528 116.573 177.505 116.823 175.367 113.564C173.187 110.246 171.542 106.499 170.271 102.746C168.989 98.9517 168.347 94.901 168.08 90.9098C167.771 86.3467 168.294 81.73 169.119 77.2444C169.79 73.5808 170.889 69.9947 172.296 66.5516C174.042 62.2745 175.961 58.1224 178.354 54.173C180.622 50.4379 183.218 46.9233 185.943 43.5099C189.685 38.8218 193.99 34.5983 198.652 30.8334C204.044 26.4729 209.698 22.4996 215.755 19.1279C221.777 15.7741 228.107 12.9565 234.551 10.5141C239.991 8.44702 245.567 6.74928 251.232 5.45065C257.296 4.06267 263.495 3.10955 269.695 2.62704C271.851 2.46024 274.013 2.36493 276.174 2.36493M276.18 0C274.066 0 271.821 0.089355 269.517 0.268065C263.222 0.756539 256.892 1.72753 250.71 3.1453C245.009 4.44988 239.29 6.18336 233.713 8.30406C226.569 11.0145 220.316 13.8858 214.609 17.0668C208.795 20.3074 203.088 24.2092 197.173 29.0046C192.191 33.0375 187.79 37.4278 184.102 42.0505C180.86 46.1131 178.395 49.5801 176.341 52.9637C174.167 56.5438 172.19 60.5827 170.111 65.6759C168.585 69.4169 167.468 73.1758 166.797 76.8393C165.782 82.3674 165.443 86.9007 165.722 91.0944C166.037 95.8064 166.797 99.881 168.033 103.539C169.517 107.923 171.317 111.741 173.389 114.899C173.532 115.113 173.662 115.316 173.787 115.506C166.999 118.336 159.624 122.53 153.572 127.045C149.041 130.423 145.531 133.353 142.526 136.278C139.379 139.34 136.362 142.867 133.31 147.066C130.744 150.593 128.565 154.673 126.451 159.898C124.675 164.294 123.98 168.637 123.493 172.676C123.101 175.922 123.125 179.312 123.558 182.755C124.022 186.418 124.699 190.731 126.213 194.973C127.745 199.285 129.539 203.169 131.54 206.517C133.535 209.859 136.041 213.255 138.987 216.608C141.214 219.146 143.732 221.517 146.47 223.661C149.569 226.086 152.984 228.606 156.933 230.595C161.15 232.722 165.461 234.384 169.743 235.528C173.947 236.654 178.52 237.398 183.728 237.809C185.445 237.946 187.202 238.012 188.954 238.012C191.122 238.012 193.343 237.911 195.552 237.702C200.665 237.226 205.262 236.487 209.609 235.433C217.697 233.473 225.874 230.274 233.921 225.913C235.578 225.014 237.271 224.031 238.945 222.988C241.831 221.195 243.981 218.384 244.848 215.28C245.383 213.547 245.472 211.789 245.121 210.05C245.009 208.298 244.462 206.642 243.506 205.129C241.487 201.99 238.714 199.887 235.691 199.196C234.533 198.928 233.369 198.797 232.235 198.797C229.812 198.797 227.626 199.393 225.738 200.566C222.127 202.812 218.338 204.814 214.484 206.523C208.569 208.912 202.56 210.592 196.615 211.521C194.044 211.813 191.466 211.962 188.954 211.962C186.686 211.962 184.423 211.843 182.22 211.605C178.354 210.979 174.642 209.984 171.18 208.644C168.472 207.393 165.835 205.832 163.341 204.021C160.805 201.93 158.454 199.571 156.357 197.01C154.463 194.401 152.842 191.631 151.529 188.777C150.537 186.18 149.801 183.535 149.344 180.902C149.136 178.662 149.124 176.428 149.32 174.248C149.688 172.199 150.258 170.144 151.007 168.136C152.2 165.575 153.726 163.007 155.55 160.505C158.638 156.705 162.444 152.976 166.869 149.431C172.255 145.398 178.122 141.961 184.316 139.215C191.14 136.457 198.242 134.563 205.428 133.574L205.737 133.532L206.028 133.407L208.563 132.335L208.67 132.293L208.771 132.239C210.286 131.423 211.533 130.297 212.483 128.898C213.273 128.046 213.849 127.057 214.199 125.943C214.977 124.37 215.339 122.661 215.274 120.862C215.173 118.592 214.591 116.447 213.552 114.47C212.72 112.921 211.586 111.664 210.179 110.705C208.89 109.561 207.37 108.781 205.665 108.376H205.63L205.594 108.358C204.591 108.149 203.587 107.869 202.613 107.53C201.556 107 200.511 106.386 199.513 105.695C198.367 104.706 197.274 103.598 196.259 102.401C195.16 100.834 194.18 99.1483 193.349 97.3791C192.63 95.449 192.084 93.4653 191.728 91.4697C191.52 89.1227 191.543 86.6445 191.793 84.1009C192.363 80.7233 193.343 77.2563 194.703 73.7894C196.799 69.1191 199.543 64.4845 202.862 60.0108C206.449 55.5371 210.743 51.2898 215.63 47.382C221.035 43.3253 227.074 39.6677 233.571 36.5164C234.984 35.8313 236.451 35.1582 237.936 34.5089C245.448 31.4291 253.162 29.0999 260.859 27.5809C262.545 27.2473 264.256 26.9495 265.948 26.6993C269.594 26.2585 272.926 26.044 276.127 26.044C278.603 26.044 281.02 26.181 283.301 26.4431L283.39 26.455H283.479C283.621 26.461 283.764 26.4669 283.9 26.4669C285.551 26.4669 287.125 26.0976 288.58 25.3649C290.172 24.8109 291.573 23.8995 292.749 22.6485C293.996 21.469 294.905 20.0632 295.457 18.4667C296.253 16.8821 296.615 15.1606 296.55 13.3496C296.383 9.56098 295.006 6.30846 292.678 4.16394L292.6 4.09842L292.523 4.03885L291.377 3.15125L290.379 2.37684L290.255 2.28153L290.118 2.20409C288.147 1.05439 285.997 0.458689 283.716 0.428904C281.317 0.154882 278.781 0.017871 276.174 0.017871L276.18 0Z" fill="#F0EAE8"/>
<path d="M243.506 165.736V98.4811L245.276 99.4878C247.117 100.536 248.833 101.287 250.371 101.716C251.897 102.151 253.637 102.365 255.538 102.365C257.438 102.365 259.273 102.145 260.758 101.716C262.248 101.281 263.899 100.536 265.657 99.4938L267.451 98.4335V165.736H243.506ZM255.538 97.2838C251.238 97.2838 247.628 96.1043 244.819 93.787C241.938 91.4102 240.478 88.1398 240.478 84.0711C240.478 80.0025 241.944 76.75 244.831 74.4148C247.639 72.1393 251.244 70.9896 255.538 70.9896C259.831 70.9896 263.323 72.1393 266.18 74.4089C269.113 76.744 270.604 79.9966 270.604 84.0711C270.604 88.1457 269.143 91.4042 266.263 93.787C263.448 96.1102 259.843 97.2838 255.544 97.2838H255.538Z" fill="#0051BD"/>
<path d="M255.538 72.181C259.487 72.181 262.789 73.2353 265.437 75.3441C268.086 77.4529 269.41 80.3659 269.41 84.0771C269.41 87.7883 268.104 90.7191 265.503 92.8696C262.896 95.0201 259.576 96.0983 255.538 96.0983C251.5 96.0983 248.18 95.0201 245.573 92.8696C242.966 90.7191 241.665 87.7883 241.665 84.0771C241.665 80.3659 242.966 77.4529 245.573 75.3441C248.18 73.2353 251.5 72.181 255.538 72.181ZM266.263 100.518V164.544H244.694V100.518C246.63 101.614 248.417 102.395 250.056 102.86C251.696 103.324 253.525 103.556 255.544 103.556C257.563 103.556 259.493 103.324 261.096 102.86C262.694 102.395 264.416 101.614 266.269 100.518M255.538 69.7982C250.965 69.7982 247.111 71.0372 244.082 73.4915C240.899 76.0649 239.29 79.6272 239.29 84.0771C239.29 88.527 240.899 92.0952 244.064 94.7103C247.093 97.2123 250.953 98.4811 255.538 98.4811C260.122 98.4811 263.977 97.2123 267.011 94.7103C270.182 92.0952 271.786 88.5151 271.786 84.0771C271.786 79.6391 270.147 76.053 266.916 73.4796C263.846 71.0372 260.021 69.7982 255.538 69.7982ZM268.638 96.3425L265.057 98.4692C263.383 99.4581 261.833 100.167 260.437 100.572C259.059 100.971 257.414 101.174 255.544 101.174C253.673 101.174 252.123 100.971 250.704 100.566C249.255 100.155 247.628 99.4461 245.864 98.4454L242.318 96.4319V166.921H268.638V96.3366V96.3425Z" fill="#F0EAE8"/>
</g>
<defs>
<clipPath id="clip0_250_2">
<rect width="341" height="238" fill="white"/>
</clipPath>
</defs>
</svg>
